<svg viewbox="0 0 48 48" xmlns="http://www.w3.org/2000/svg">
    <path d="M 24 46 C 11.9 46 2 36.1 2 24 S 11.9 2 24 2 a 22 22 0 0 1 16.3 7.3 a 0.5 0.5 0 1 1 -0.7 0.7 A 21 21 0 0 0 24 3 C 12.4 3 3 12.4 3 24 s 9.4 21 21 21 s 21 -9.4 21 -21 c 0 -2.3 -0.4 -4.6 -1.1 -6.7 a 0.5 0.5 0 1 1 0.9 -0.3 A 22 22 0 0 1 46 24 c 0 12.1 -9.9 22 -22 22 z"/>
    <path d="M 23.2 35 a 2.9 2.9 0 0 1 -2 -0.8 l -8.9 -8.8 a 2.9 2.9 0 0 1 -0.8 -2 c 0 -0.8 0.3 -1.5 0.8 -2 c 1.1 -1.1 3 -1.1 4 0 l 6.5 6.4 c 0.2 0.2 0.6 0.2 0.8 0 L 40.6 10.8 c 1.1 -1.1 2.9 -1.1 4 0 a 2.9 2.9 0 0 1 0.8 2 c 0 0.8 -0.3 1.5 -0.8 2 L 25.3 34.2 a 2.9 2.9 0 0 1 -2 0.8 z m -8.9 -13.6 a 1.9 1.9 0 0 0 -1.3 0.5 c -0.4 0.4 -0.6 0.8 -0.6 1.3 s 0.2 1 0.6 1.3 l 8.9 8.9 c 0.7 0.7 1.9 0.7 2.6 0 l 19.4 -19.3 c 0.4 -0.4 0.6 -0.8 0.6 -1.3 s -0.2 -1 -0.6 -1.3 c -0.7 -0.7 -1.9 -0.7 -2.6 0 L 24.4 28.4 c -0.6 0.6 -1.6 0.6 -2.2 0 l -6.5 -6.4 a 1.8 1.8 0 0 0 -1.3 -0.5 z" />
</svg>
